<svg width="122" height="46" fill="none" xmlns="http://www.w3.org/2000/svg"><path fill-rule="evenodd" clip-rule="evenodd" d="M86.122 1.3l-.657 4.272c-1.425-.758-2.473-1.055-3.592-1.055-2.986 0-5.098 3.035-5.098 7.37 0 2.993 1.418 4.796 3.75 4.796.989 0 2.077-.318 3.407-1.015l-.7 4.496c-1.472.424-2.433.574-3.546.574-4.325 0-7.016-3.262-7.016-8.5 0-7.044 3.718-11.964 9.036-11.964.687 0 1.3.067 1.799.212l1.653.433c.492.195.603.225.964.381zM72.808 4.228l.137.042c-.673 1.294-1.161 2.713-1.518 4.643-.165-.016-.176-.016-.293-.016-1.933 0-2.301 1.69-3.743 11.479h-4.03L65.823 4.36h3.633L69.1 6.794c1.227-1.908 1.975-2.607 3.296-2.607.145 0 .285.017.41.041zM48.79 20.18c-1.09.363-1.952.528-2.877.528-2.048 0-3.166-1.247-3.166-3.523 0-.446.033-.928.114-1.436l.248-1.561.184-1.276 1.74-10.928h3.989l-.458 2.376h2.053l-.564 3.893h-2.047l-1.06 6.684c-.036.296-.067.513-.067.664 0 .82.419 1.187 1.367 1.187.462 0 .811-.049 1.08-.15l-.535 3.542zM32.98 9.425c-.017-2.956 1.531-5.414 5.996-5.414.92 0 2.474.137 3.52.316l-.572 3.698c-1.018-.145-2.084-.239-2.87-.239-1.288 0-1.952.447-1.952 1.315 0 .744.19.932 1.863 1.73 2.005.97 2.817 2.266 2.817 4.458 0 3.647-1.947 5.347-6.155 5.347-.519 0-1.252-.043-2.209-.133-.46-.05-.809-.094-1.046-.145l-.736-.156-.182-.038.555-3.694c1.283.442 2.396.64 3.587.64 1.578 0 2.295-.46 2.295-1.455 0-.73-.257-.963-1.871-1.766-2.11-1.045-3.04-2.443-3.04-4.464zm85.094 10.95h-3.796l.199-1.568c-1.106 1.24-2.24 1.78-3.707 1.78-2.934 0-4.856-2.643-4.856-6.648 0-5.327 2.988-9.824 6.536-9.824 1.559 0 2.737.675 3.847 2.192l.873-5.626h3.954l-3.05 19.695zm-5.92-3.77c1.874 0 3.184-2.226 3.184-5.396 0-2.035-.748-3.144-2.134-3.144-1.817 0-3.109 2.235-3.109 5.387 0 2.097.695 3.153 2.059 3.153zm-50.655 3.434c-1.373.431-2.7.65-4.122.643-4.473 0-6.81-2.461-6.81-7.168 0-5.504 2.972-9.556 7.014-9.556 3.296 0 5.413 2.27 5.413 5.83 0 1.178-.143 2.326-.5 3.95h-7.976a3.194 3.194 0 00-.039.497c0 1.871 1.194 2.814 3.528 2.814 1.43 0 2.72-.31 4.161-1.018l-.67 4.008zm-2.25-9.536c.022-.335.027-.608.027-.81 0-1.31-.706-2.074-1.899-2.074-1.272 0-2.184 1.02-2.558 2.873l4.43.01zm-42.375 9.873h-4.008L15.162 5.24l-5.129 15.135H7.285L6.953 5.33 4.535 20.376H.782L3.913.68H9.69l.159 12.187L13.747.68h6.233l-3.107 19.695zM27.2 13.242a6.698 6.698 0 00-.898-.07c-2.273 0-3.424.828-3.424 2.445 0 .998.566 1.633 1.441 1.633 1.632 0 2.815-1.633 2.881-4.008zm2.918 7.134h-3.322l.072-1.663c-1.012 1.326-2.365 1.941-4.203 1.941-2.18 0-3.67-1.785-3.67-4.363 0-3.91 2.602-6.18 7.05-6.18.455 0 1.035.035 1.632.119.125-.53.16-.759.16-1.04 0-1.057-.698-1.459-2.578-1.459-1.135 0-2.438.173-3.335.458l-.558.161-.351.104.552-3.592C23.569 4.24 24.888 4 26.373 4c3.448 0 5.274 1.626 5.274 4.696 0 .797-.058 1.389-.331 3.177l-.84 5.674-.137 1.025-.103.816-.07.558-.05.43zm62.913-7.134a6.613 6.613 0 00-.89-.07c-2.283 0-3.438.828-3.438 2.445 0 .998.572 1.633 1.448 1.633 1.64 0 2.809-1.633 2.88-4.008zm2.92 7.134h-3.326l.078-1.663c-1.012 1.326-2.368 1.941-4.203 1.941-2.181 0-3.676-1.785-3.676-4.363 0-3.91 2.6-6.18 7.056-6.18.452 0 1.038.035 1.63.119.124-.53.16-.759.16-1.04 0-1.057-.697-1.459-2.576-1.459-1.142 0-2.441.173-3.331.458l-.57.161-.348.104.558-3.592C89.41 4.24 90.725 4 92.2 4c3.453 0 5.28 1.626 5.28 4.696 0 .797-.07 1.389-.33 3.177l-.845 5.674-.124 1.025-.112.816-.073.558-.044.43zm11.206-16.148l.136.042c-.674 1.294-1.165 2.713-1.528 4.643-.165-.027-.156-.016-.281-.016-1.919 0-2.298 1.69-3.741 11.479h-4.017L100.18 4.36h3.629l-.358 2.434c1.233-1.908 1.986-2.607 3.303-2.607.154 0 .285.017.404.041zm-16.833 31.68c0-1.662-.511-3.228-1.989-3.229-1.838 0-2.984 2.89-2.984 5.44 0 2.156.784 3.598 2.078 3.558 1.771 0 2.895-2.138 2.895-5.769zm3.946.067c0 6.665-2.992 9.584-7.115 9.584-4.085 0-5.736-3.292-5.736-7.318 0-5.623 2.794-9.443 7.109-9.443 3.747 0 5.742 3.141 5.742 7.177zm-11.562-10.01l-.613 4.268c-1.334-.753-2.304-1.066-3.353-1.066-2.803 0-4.76 3.049-4.76 7.383 0 2.992 1.31 4.802 3.494 4.802.931 0 1.95-.318 3.187-1.016l-.65 4.493c-1.386.427-2.29.573-3.32.573-4.039 0-6.554-3.264-6.554-8.502 0-7.048 3.472-11.966 8.444-11.966.644 0 1.214.081 1.685.211l1.534.436c.474.188.572.22.906.384zm-24.805 2.933l.136.027c-.63 1.297-1.084 2.716-1.422 4.653-.156-.018-.167-.018-.273-.018-1.797 0-2.153 1.686-3.5 11.485h-3.746l2.29-16.018h3.392l-.332 2.43c1.14-1.902 1.853-2.604 3.07-2.604.139 0 .27.013.385.044zm48.928 15.975h-3.539l.182-1.563c-1.03 1.233-2.1 1.779-3.47 1.779-2.73 0-4.532-2.648-4.532-6.652 0-5.318 2.797-9.829 6.104-9.829 1.46 0 2.567.69 3.59 2.207l.826-5.631h3.687l-2.848 19.69zm-5.538-3.767c1.765 0 2.981-2.224 2.981-5.397 0-2.041-.695-3.137-1.983-3.137-1.704 0-2.915 2.226-2.915 5.388 0 2.087.65 3.146 1.917 3.146zm-78.516 3.701a11.53 11.53 0 01-3.837.652c-4.184 0-6.367-2.467-6.367-7.172 0-5.496 2.777-9.551 6.548-9.551 3.087 0 5.056 2.267 5.056 5.825 0 1.176-.134 2.329-.454 3.953h-7.466a4.97 4.97 0 00-.031.497c0 1.868 1.118 2.81 3.29 2.81 1.34 0 2.55-.312 3.891-1.015l-.63 4.001zm-2.095-9.529c.018-.338.028-.608.028-.814 0-1.306-.658-2.07-1.77-2.07-1.197 0-2.048 1.028-2.39 2.867l4.133.017zm46.654 9.53a11.585 11.585 0 01-3.839.651c-4.191 0-6.372-2.467-6.372-7.172 0-5.496 2.78-9.551 6.548-9.551 3.088 0 5.063 2.267 5.063 5.825 0 1.176-.14 2.329-.472 3.953h-7.45c-.022.239-.036.357-.036.497 0 1.868 1.116 2.81 3.288 2.81 1.34 0 2.553-.312 3.895-1.015l-.625 4.001zm-2.106-9.53c.025-.338.038-.608.038-.814 0-1.306-.663-2.07-1.771-2.07-1.197 0-2.047 1.028-2.393 2.867l4.126.017zm54.383 9.53a11.674 11.674 0 01-3.849.651c-4.183 0-6.372-2.467-6.372-7.172 0-5.496 2.786-9.551 6.553-9.551 3.087 0 5.054 2.267 5.054 5.825 0 1.176-.128 2.329-.46 3.953h-7.458a4.086 4.086 0 00-.031.497c0 1.868 1.119 2.81 3.292 2.81 1.34 0 2.548-.312 3.893-1.015l-.622 4.001zm-2.106-9.53c.017-.338.027-.608.027-.814 0-1.306-.655-2.07-1.77-2.07-1.197 0-2.044 1.028-2.391 2.867l4.134.017zM11.689 29.621c-.734-.49-1.727-.919-3.13-.919-1.514 0-2.733.314-2.733 1.925 0 2.846 5.522 1.783 5.522 7.877 0 5.55-3.644 6.988-6.941 6.988-1.467 0-3.154-.485-4.398-1.037l.895-4.079c.75.682 2.265 1.149 3.503 1.149 1.18 0 3.029-.322 3.029-2.381 0-3.225-5.52-2.025-5.52-7.684 0-5.178 3.225-6.728 6.335-6.728 1.75 0 3.396.257 4.361.898l-.923 3.991zm22.056 15.18c-.772.372-1.804.617-3.327.617-3.274 0-5.304-3.273-5.304-7.257 0-5.214 2.937-9.374 7.26-9.374.942 0 2.381.408 3.516 1.066l-.828 3.825c-.804-.528-1.64-.864-2.502-.864-2.003 0-3.433 1.836-3.433 5.124 0 1.894 1.037 3.447 2.677 3.447.976 0 1.662-.206 2.502-.697l-.56 4.113zm14.012-4.01c-.192 1.378-.37 2.715-.477 4.153h-3.606l.304-2.59h-.037c-1.129 1.76-2.297 2.958-4.339 2.958-2.264 0-3.49-2.382-3.49-5.493 0-1.073.066-1.678.305-3.353l1.021-7.413h4.013l-1.076 7.435c-.11.799-.262 1.59-.262 2.417 0 .937.426 1.885 1.509 1.827 1.645 0 2.615-2.012 2.891-4.36l1.108-7.32h3.885l-1.749 11.739z" fill="#44C793"/></svg>