<svg width="119" height="46" fill="none" xmlns="http://www.w3.org/2000/svg"><path fill-rule="evenodd" clip-rule="evenodd" d="M64.08 30.432a104.912 104.912 0 00-5.285 9.965l-.087.195-.13.15c-1.034 1.295-2.587 1.963-4.507 1.963-1.466 0-2.933-.431-3.58-.82-.248-.152-.698-.44-4.787-5.638l-9.114 2.868c-6.82 2.146-13.642 4.292-20.457 6.438l-.056.017c-.256.081-.472.15-.613-.233a3053.469 3053.469 0 00-3.185-8.662l-.001-.002-1.537-4.169.157-.012c.207-.017.381-.031.555-.031.46 0 .92-.001 1.379-.003h.027c1.4-.004 2.795-.008 4.201.025.54 0 .669-.173.647-.67-.009-.59-.006-1.182-.004-1.773.004-.79.007-1.578-.017-2.367-.022-.56.172-.69.712-.69 1.984.043 3.968-.13 5.866-.82 1.812-.669 3.3-1.704 4.033-3.559 1.186-2.933-.021-5.952-2.911-7.29a12.63 12.63 0 00-5.155-1.143 254.31 254.31 0 00-5.033-.041 315.978 315.978 0 01-4.026-.023c-.529 0-.524.302-.518.617v17.154c-.025 0-.05.008-.07.014a.152.152 0 01-.037.008A11231.46 11231.46 0 010 3.236c.647-.035 1.274-.077 1.893-.118a176.82 176.82 0 011.536-.097c4.918-.27 9.84-.545 14.764-.82 4.923-.275 9.845-.55 14.763-.82L44.324.735h.008L55.71.087c.431-.021.56.195.69.496l.002.005c2.513 5.604 5.026 11.209 7.552 16.813 3.848-5.077 4.583-5.41 5.1-5.643l.007-.003c2.113-.949 4.615-1.359 6.147-1.359.215 0 .41 0 .604.022a1.875 1.875 0 011.596 1.165c.431 1.078-.302 1.962-.626 2.35-.302.367-.712.82-1.25 1.38l-.021.023c-1.695 1.827-4.638 5-8.044 9.877l1.313 2.913c.025.06.047.122.07.185h.001v.001c.06.16.123.331.231.547-1.68.527-3.342 1.05-5.003 1.573zm-15.92-2.358a2.954 2.954 0 00-.28-.014c-1.121 0-2.437.67-3.321 1.726-.736.868-1.093 1.885-1.04 2.92-2.68.204-5.336-.133-7.954-1.194-3.538-1.424-5.5-4.098-5.608-7.959-.108-3.796 1.725-6.47 5.004-8.239 1.811-.992 3.796-1.423 5.823-1.53 2.157-.109 4.292-.066 6.384.646.432.13.604.324.583.798a71.077 71.077 0 00-.025 2.79v.002c.002.313.003.626.003.94 0 .133-.013.28-.029.46l-.007.077-.007.088a6.659 6.659 0 00-.69-.28c-1.834-.842-3.753-1.23-5.78-.863-2.287.431-3.624 1.94-3.84 4.335-.215 2.265.906 4.12 2.998 4.939 1.618.647 3.257.604 4.918.28a24.842 24.842 0 001.8-.472c.33-.095.662-.192 1.004-.283.008.06.02.113.031.163.017.077.033.147.033.226v.444zm9.878-2.546a835.804 835.804 0 00-4.13 5.89l-.29.417a36.853 36.853 0 00-.442-.4c-.167-.15-.337-.304-.508-.463a38.82 38.82 0 00-1.74-1.459c.014-4.937.012-9.861-.007-14.803 0-.496.151-.647.647-.647 1.266.015 2.541.01 3.814.005h.002c.635-.002 1.268-.005 1.9-.005.755 0 .755 0 .755.734v10.73zM54.46 4.315c2.567 0 4.292 1.617 4.292 4.033 0 2.394-1.747 4.033-4.313 4.012-2.545-.022-4.27-1.64-4.27-4.012 0-2.416 1.725-4.033 4.291-4.033zM18.365 22.873c.076-.005.151-.01.227-.01 0 .021 0 .064.021.086.171-.039.344-.074.517-.11.503-.105 1.008-.21 1.49-.386.905-.345 1.293-1.078 1.25-2.135-.021-.95-.474-1.661-1.402-1.898-.618-.15-1.262-.21-1.901-.27a44.916 44.916 0 01-.558-.054c-.345-.021-.388.194-.388.475 0 .421.003.845.005 1.27v.007c.005.855.01 1.713-.005 2.562 0 .388.173.517.518.474.075 0 .15-.005.226-.01zm60.1-16.1h6.276c1.25 0 2.243.172 2.998.496.755.345 1.402.82 1.898 1.445a5.835 5.835 0 011.078 2.2c.216.841.345 1.725.345 2.653 0 1.466-.172 2.61-.496 3.407a5.64 5.64 0 01-1.38 2.028 4.761 4.761 0 01-1.898 1.1 9.38 9.38 0 01-2.524.366h-6.297V6.773zm4.205 3.106v7.484h1.035c.885 0 1.51-.108 1.898-.302.367-.194.67-.54.885-1.036.215-.496.323-1.272.323-2.372 0-1.445-.237-2.437-.712-2.976-.474-.54-1.25-.798-2.35-.798H82.67zm13.912 5.823l-4.034.259c.108 1.38.626 2.523 1.489 3.364.905.884 2.523 1.337 4.852 1.337 1.316 0 2.438-.194 3.3-.582.885-.388 1.553-.949 2.049-1.682a4.311 4.311 0 00.734-2.437c0-.755-.173-1.424-.54-2.028-.366-.604-.949-1.1-1.747-1.51-.819-.41-2.135-.798-3.99-1.207-.755-.151-1.23-.324-1.423-.496-.194-.173-.302-.367-.302-.583 0-.302.108-.539.367-.755.258-.215.625-.323 1.121-.323.582 0 1.057.15 1.402.431.345.28.561.712.669 1.337l3.99-.237c-.173-1.423-.712-2.459-1.64-3.106-.927-.647-2.264-.97-4.011-.97-1.424 0-2.545.172-3.365.539-.82.367-1.423.863-1.833 1.488a3.583 3.583 0 00-.604 2.006c0 1.078.41 1.963 1.208 2.653.776.69 2.114 1.25 3.968 1.66 1.143.26 1.877.518 2.179.799.323.28.474.603.474.949 0 .388-.172.711-.496.992-.323.28-.798.431-1.402.431-.82 0-1.445-.28-1.876-.841-.28-.345-.453-.841-.54-1.488zm9.791.259l4.034-.26c.086.648.258 1.144.539 1.489.431.56 1.057.841 1.876.841.604 0 1.079-.15 1.402-.431.324-.28.496-.604.496-.992 0-.346-.151-.669-.474-.95-.302-.28-1.036-.539-2.179-.797-1.854-.41-3.192-.971-3.968-1.661-.798-.69-1.208-1.575-1.208-2.653 0-.712.194-1.38.604-2.006.41-.625 1.014-1.121 1.833-1.488.82-.367 1.941-.54 3.365-.54 1.747 0 3.084.324 4.011.971.928.647 1.467 1.683 1.64 3.106l-3.99.237c-.108-.625-.324-1.056-.669-1.337-.345-.28-.82-.431-1.402-.431-.496 0-.863.108-1.122.323-.258.216-.366.453-.366.755 0 .216.108.41.302.582.194.173.668.346 1.423.497 1.855.41 3.171.798 3.99 1.207.798.41 1.381.906 1.747 1.51.367.604.54 1.273.54 2.028 0 .884-.238 1.682-.734 2.437-.496.733-1.164 1.294-2.049 1.682-.862.388-1.984.582-3.3.582-2.329 0-3.947-.453-4.852-1.337-.863-.841-1.381-1.984-1.489-3.364zm-24.22 10.287l-1.122-.345a1.22 1.22 0 01-.259.583c-.13.15-.323.215-.56.215-.238 0-.454-.086-.583-.259-.15-.172-.216-.495-.216-.948 0-.367.065-.648.173-.82.15-.237.367-.345.669-.345.129 0 .237.021.345.086.108.065.194.13.259.237.043.065.086.151.129.28l1.143-.258c-.151-.431-.367-.755-.669-.97-.302-.216-.711-.324-1.229-.324-.669 0-1.186.194-1.553.56-.388.367-.56.906-.56 1.597 0 .517.107.949.301 1.272.194.324.453.56.734.69.28.13.647.195 1.1.195.388 0 .69-.065.927-.173.237-.108.431-.259.604-.475.172-.215.28-.474.367-.798zm.711-.733c0-.69.194-1.208.561-1.596.388-.388.906-.56 1.575-.56.69 0 1.229.193 1.596.56.366.367.56.884.56 1.575 0 .496-.086.884-.237 1.207-.172.302-.41.561-.712.734-.302.172-.69.259-1.164.259-.475 0-.863-.065-1.165-.216a1.834 1.834 0 01-.755-.712c-.194-.323-.259-.755-.259-1.25zm1.294.022c0 .431.087.733.238.906.15.194.366.28.647.28.28 0 .496-.086.647-.28.15-.173.237-.497.237-.971 0-.388-.086-.669-.237-.863a.828.828 0 00-.647-.28c-.26 0-.475.086-.626.28-.194.194-.259.496-.259.928zm5.651-2.092h-1.704l-.021 4.162h1.056v-3.17l.82 3.17h.95l.819-3.17v3.17h1.056v-4.162h-1.682l-.647 2.545-.647-2.545zm4.033 0h2.136c.474 0 .82.108 1.056.323.238.216.346.54.346.95 0 .43-.13.754-.389.991-.258.238-.647.346-1.164.346h-.712v1.552h-1.294l.021-4.162zm1.294 1.768h.324c.259 0 .431-.043.518-.13a.388.388 0 00.15-.323.439.439 0 00-.129-.323c-.086-.086-.259-.13-.496-.13h-.367v.906zm4.443-1.768h-1.294v4.184h3.3v-1.035h-2.006v-3.15zm2.869 0h1.294v4.162h-1.294v-4.162zm3.537 3.472h1.467l.215.69h1.359l-1.574-4.162h-1.402l-1.575 4.162h1.316l.194-.69zm.755-2.394l.453 1.488h-.906l.453-1.488zm2.933-1.078h1.208l1.575 2.308v-2.308h1.207v4.162h-1.207l-1.553-2.286v2.286h-1.208l-.022-4.162zm8.692 0h-3.925v1.035h1.315v3.149h1.294V24.48h1.316v-1.035z" fill="#44C793"/></svg>