<svg width="53" height="46" fill="none" xmlns="http://www.w3.org/2000/svg"><path fill-rule="evenodd" clip-rule="evenodd" d="M22.576 12.109L25.094.332h-3.046L19.529 12.11h3.047zm16.94-8.595l-1.604 4.423h2.526l-.922-4.423zm4.614 8.595h-2.818l-.369-1.76h-3.908l-.635 1.76h-3.2l4.572-10.914A1.387 1.387 0 0139.07.332h2.598L44.13 12.11zm-13.535-7.16c1.232.647 2.772 1.456 2.764 3.315-.01 2.448-2.103 4.03-5.305 4.03-1.36-.015-2.674-.3-3.387-.626l.553-2.581.065.03c.697.326 1.578.737 3.064.714.875-.013 1.814-.363 1.822-1.153.006-.516-.392-.886-1.58-1.463-1.153-.564-2.686-1.51-2.666-3.205.017-2.293 2.135-3.893 5.147-3.893a8.21 8.21 0 012.85.52l-.534 2.499c-1.365-.629-2.568-.583-3.004-.527-.88.115-1.283.564-1.292.986-.012.558.677.92 1.504 1.354zm-14.79 7.16L20.74.332h-3.2l-3.17 8.015-1.283-6.815c-.151-.76-.745-1.2-1.405-1.2H6.498l-.072.342c1.063.232 2.272.604 3.005 1.002.448.244.576.456.724 1.034l2.429 9.399h3.22zM52.45 45.428H.008V19.222h52.443v26.206zM13.663 34.125a2.978 2.978 0 01-1.438-.38l-.247.9c.327.194.98.37 1.615.37 1.526 0 2.25-.82 2.25-1.782 0-.846-.494-1.367-1.527-1.764-.793-.3-1.138-.512-1.138-.97 0-.354.291-.715.98-.715.556 0 .97.167 1.19.282l.256-.882c-.308-.15-.776-.291-1.42-.291-1.297 0-2.109.732-2.109 1.711 0 .847.627 1.376 1.615 1.72.75.274 1.05.539 1.05.989 0 .485-.388.812-1.077.812zm6.398-1.836H17.82v1.747h2.506v.891h-3.591v-5.946h3.458v.89H17.82v1.536h2.24v.882zm3.848 2.727c.723 0 1.288-.142 1.543-.265l-.176-.856c-.291.123-.75.212-1.182.212-1.315 0-2.073-.83-2.073-2.135 0-1.43.873-2.188 2.082-2.188.485 0 .882.106 1.164.23l.23-.866c-.221-.114-.724-.255-1.439-.255-1.817 0-3.185 1.173-3.185 3.132 0 1.808 1.148 2.99 3.036 2.99zm3.459-6.035v3.467c0 1.165.485 1.703 1.218 1.703.785 0 1.252-.538 1.252-1.703v-3.467h1.085v3.397c0 1.835-.943 2.646-2.372 2.646-1.377 0-2.268-.767-2.268-2.638v-3.405h1.085zm6.432 2.708h-.644v-1.878c.107-.027.327-.054.671-.054.706 0 1.156.309 1.156.953 0 .591-.45.98-1.183.98zm-.079-2.752a9.3 9.3 0 00-1.64.132v5.858h1.075v-2.444h.548c.617.018.89.265 1.067 1.042.159.74.309 1.226.397 1.402h1.112c-.089-.177-.204-.628-.34-1.166l-.006-.022-.121-.47c-.142-.574-.398-.988-.83-1.147v-.027c.564-.194 1.085-.714 1.085-1.482 0-.512-.185-.926-.512-1.2-.405-.335-.979-.476-1.835-.476zm6.618 3.352H38.1v1.747h2.505v.891h-3.59v-5.946h3.457v.89h-2.373v1.536h2.241v.882z" fill="#44C793"/></svg>